<svg width="1024" height="1024" viewBox="0 0 1024 1024" fill="none" xmlns="http://www.w3.org/2000/svg">
<rect width="1024" height="1024" rx="512" fill="#2C2C2C"/>
<path d="M131.86 384.003H236.589C258.743 384.003 278.055 399.082 283.428 420.575C288.802 442.068 306.463 449.93 320.277 432.61C333.216 416.387 347.482 395.041 358.201 377.951C363.195 369.988 365.714 360.752 365.714 351.353C365.714 327.555 349.518 306.812 326.431 301.04L311.724 297.363C299.192 294.23 287.746 287.75 278.611 278.615L277.423 277.426C263.706 263.71 256 245.105 256 225.707V198.009C256 188.31 252.147 179.007 245.288 172.149C231.006 157.867 207.851 157.867 193.569 172.149C186.71 179.007 182.857 188.31 182.857 198.009V240.855C182.857 250.554 179.004 259.856 172.145 266.715C157.863 280.997 134.708 280.997 120.426 266.715C113.567 259.856 109.714 250.554 109.714 240.855V198.009C109.714 188.31 105.861 179.007 99.0026 172.149C84.7206 157.867 61.5648 157.867 47.2828 172.149C40.4243 179.007 36.5713 188.31 36.5713 198.009V280.705C36.5713 288.567 37.8387 296.377 40.3247 303.835L46.921 323.624C52.0645 339.054 62.2046 352.33 75.738 361.353L91.2877 371.719C103.303 379.729 117.42 384.003 131.86 384.003Z" fill="#AC8B7A"/>
<path d="M892.14 384.003H770.739C758.382 384.003 747.612 392.413 744.615 404.4C739.21 426.019 711.385 432.092 697.464 414.691L668.909 378.997C662.032 370.401 658.286 359.72 658.286 348.712C658.286 326.466 673.425 307.076 695.007 301.68L712.275 297.363C724.808 294.23 736.254 287.75 745.388 278.615L746.577 277.426C760.294 263.71 768 245.105 768 225.707V198.009C768 188.31 771.853 179.007 778.711 172.149C792.993 157.867 816.149 157.867 830.431 172.149C837.29 179.007 841.143 188.31 841.143 198.009V240.855C841.143 250.554 844.996 259.856 851.854 266.715C866.136 280.997 889.292 280.997 903.574 266.715C910.432 259.856 914.286 250.554 914.286 240.855V198.009C914.286 188.31 918.139 179.007 924.997 172.149C939.279 157.867 962.435 157.867 976.717 172.149C983.575 179.007 987.428 188.31 987.428 198.009V280.705C987.428 288.567 986.161 296.377 983.675 303.835L977.079 323.624C971.935 339.054 961.795 352.33 948.262 361.353L932.712 371.719C920.697 379.729 906.58 384.003 892.14 384.003Z" fill="#AC8B7A"/>
<path d="M497.792 637.731L299.614 714.525C279.077 722.483 273.5 748.925 289.074 764.499C291.39 766.816 293.318 769.491 294.783 772.421L304.546 791.946C320.512 823.878 346.404 849.77 378.337 865.736L389.432 871.284C397.99 875.563 406.842 879.23 415.919 882.255L421.566 884.138C480.268 903.705 543.732 903.705 602.434 884.138L608.081 882.255C617.158 879.23 626.01 875.563 634.568 871.284L658.286 859.425C682.025 847.556 701.273 828.307 713.143 804.568L726.604 777.647C729.736 771.383 734.815 766.304 741.079 763.172C765.902 750.76 764.616 714.91 738.967 704.309L580.109 638.647C553.807 627.776 524.329 627.448 497.792 637.731Z" fill="#AC8B7A"/>
<path d="M475.429 694.86C455.231 715.058 455.231 747.806 475.429 768.003C495.627 788.201 528.374 788.201 548.572 768.003C568.77 747.806 568.77 715.058 548.572 694.86C528.374 674.663 495.627 674.663 475.429 694.86Z" fill="#FF3333"/>
<path d="M877.715 665.597C877.715 665.597 668.034 548.568 512 548.568C355.966 548.568 146.286 665.597 146.286 665.597V841.14C146.286 841.14 355.966 724.111 512 724.111C668.034 724.111 877.715 841.14 877.715 841.14V665.597Z" fill="white"/>
<path d="M512 548.568C668.034 548.568 877.715 665.597 877.715 665.597V621.711C877.715 451.08 719.098 255.54 583.365 198.955C576.031 231.604 546.864 255.997 512 255.997C477.137 255.997 447.97 231.604 440.636 198.955C304.903 255.54 146.286 451.08 146.286 621.711V665.597C146.286 665.597 355.966 548.568 512 548.568Z" fill="#FF3333"/>
<path d="M512 255.997C546.864 255.997 576.031 231.604 583.365 198.955C584.529 193.774 585.143 188.386 585.143 182.854C585.143 142.458 552.396 109.711 512 109.711C471.605 109.711 438.858 142.458 438.858 182.854C438.858 188.386 439.472 193.774 440.636 198.955C447.97 231.604 477.137 255.997 512 255.997Z" fill="white"/>
<path d="M310.857 365.712V493.712C310.857 510.514 328.54 521.442 343.568 513.928L347.429 511.998L384 493.712M694.857 365.712V511.998M621.715 365.712C621.715 354.505 615.383 344.261 605.359 339.249L601.498 337.318C591.203 332.17 579.084 332.17 568.788 337.318C556.398 343.513 548.572 356.176 548.572 370.029V371.664C548.572 389.659 560.819 405.345 578.277 409.71L592.009 413.143C609.467 417.507 621.715 433.193 621.715 451.189V452.824C621.715 466.676 613.888 479.34 601.498 485.534C591.203 490.682 579.084 490.682 568.788 485.534L564.927 483.604C554.903 478.592 548.572 468.347 548.572 457.141M420.572 420.569V452.824C420.572 466.676 428.398 479.34 440.788 485.534C451.084 490.682 463.203 490.682 473.498 485.534C485.888 479.34 493.715 466.676 493.715 452.824V420.569V370.029C493.715 356.176 485.888 343.513 473.498 337.318C463.203 332.17 451.084 332.17 440.788 337.318C428.398 343.513 420.572 356.176 420.572 370.029V420.569Z" stroke="white" stroke-width="32.1562" stroke-linecap="round"/>
<path d="M292.571 658.282V713.14M438.857 621.711V676.568M585.143 621.711V676.568M731.428 658.282V713.14" stroke="#F4F4F4" stroke-width="32.1562" stroke-linecap="round"/>
</svg>
